<?xml version="1.0" encoding="UTF-8" standalone="no"?>
<!-- Created with Inkscape (http://www.inkscape.org/) -->

<svg
   width="512"
   height="512"
   viewBox="0 0 512 512"
   version="1.1"
   id="svg5"
   inkscape:version="1.2.2 (b0a8486541, 2022-12-01)"
   sodipodi:docname="todo-leader.svg"
   xmlns:inkscape="http://www.inkscape.org/namespaces/inkscape"
   xmlns:sodipodi="http://sodipodi.sourceforge.net/DTD/sodipodi-0.dtd"
   xmlns="http://www.w3.org/2000/svg"
   xmlns:svg="http://www.w3.org/2000/svg">
  <sodipodi:namedview
     id="namedview7"
     pagecolor="#ffffff"
     bordercolor="#000000"
     borderopacity="0.25"
     inkscape:showpageshadow="2"
     inkscape:pageopacity="0.0"
     inkscape:pagecheckerboard="0"
     inkscape:deskcolor="#d1d1d1"
     inkscape:document-units="px"
     showgrid="false"
     inkscape:zoom="1.1893044"
     inkscape:cx="161.85932"
     inkscape:cy="297.23257"
     inkscape:window-width="1920"
     inkscape:window-height="1128"
     inkscape:window-x="0"
     inkscape:window-y="0"
     inkscape:window-maximized="1"
     inkscape:current-layer="layer11"
     showguides="true">
    <sodipodi:guide
       position="305.60123,262.28693"
       orientation="0,-1"
       id="guide1498"
       inkscape:locked="false" />
    <sodipodi:guide
       position="274.68437,174.29281"
       orientation="0,-1"
       id="guide1500"
       inkscape:locked="false" />
    <sodipodi:guide
       position="354.35473,123.16108"
       orientation="0,-1"
       id="guide1502"
       inkscape:locked="false" />
    <sodipodi:guide
       position="222.06626,201.04778"
       orientation="0,-1"
       id="guide1847"
       inkscape:locked="false" />
    <sodipodi:guide
       position="206.42318,-10.994786"
       orientation="1,0"
       id="guide2294"
       inkscape:locked="false" />
    <sodipodi:guide
       position="294.30468,215.3171"
       orientation="1,0"
       id="guide2296"
       inkscape:locked="false" />
    <sodipodi:guide
       position="250.14622,-7.6314754"
       orientation="1,0"
       id="guide2370"
       inkscape:locked="false" />
  </sodipodi:namedview>
  <defs
     id="defs2" />
  <g
     inkscape:label="face"
     inkscape:groupmode="layer"
     id="layer1"
     style="display:inline">
    <path
       id="path113"
       style="display:inline;fill:#42ff42;stroke:#000000;stroke-width:14.5"
       d="m 426.89043,250.30762 c 2.37821,116.23105 -114.46592,193.23034 -175.98825,193.23034 -61.52233,0 -177.17736,-75.81018 -175.988255,-193.23034 C 75.994596,143.59491 153.70655,57.077268 250.90218,57.077271 c 97.19563,0 173.80514,86.534509 175.98825,193.230349 z"
       sodipodi:nodetypes="szsss" />
  </g>
  <g
     inkscape:groupmode="layer"
     id="layer4"
     inkscape:label="nose-a"
     style="display:none">
    <path
       style="fill:none;fill-opacity:1;stroke:#000000;stroke-width:8;stroke-linecap:round;stroke-dasharray:none;stroke-opacity:1"
       d="m 221.30124,321.04751 c -0.3434,13.43075 11.73962,5.51269 15.77324,10.23362 4.83719,5.66142 21.81817,6.32531 25.62947,0.28348 3.12763,-4.95804 14.71545,3.65611 15.77357,-10.5171"
       id="path1504"
       sodipodi:nodetypes="cssc" />
  </g>
  <g
     inkscape:groupmode="layer"
     id="layer8"
     inkscape:label="nose-b"
     style="display:inline">
    <path
       style="display:inline;fill:none;fill-opacity:0;stroke:#000000;stroke-width:8;stroke-linecap:round;stroke-linejoin:miter;stroke-dasharray:none;stroke-opacity:1"
       d="m 229.12553,327.92278 c 15.6794,-22.00928 28.86526,-16.1741 41.20055,-0.84083"
       id="path2292"
       sodipodi:nodetypes="cc" />
  </g>
  <g
     inkscape:groupmode="layer"
     id="layer2"
     inkscape:label="hair-a"
     style="display:none">
    <path
       style="fill:#42ff42;fill-opacity:1;stroke:#000000;stroke-width:14.5;stroke-linecap:round;stroke-linejoin:miter;stroke-dasharray:none;stroke-opacity:1"
       d="M 68.947866,249.72581 C 54.419262,216.84898 55.303272,125.47088 73.992831,104.26263 173.26128,-8.383689 334.13609,-8.2688271 425.45878,104.26262 c 16.16127,19.91456 22.28198,93.19166 4.20414,145.46319 C 419.31127,208.3965 418.27184,161.6759 367.44167,143.78152 308.56714,137.3763 289.77176,167.04231 251.40746,179.09629 214.46322,164.39637 184.50264,123.5077 139.57739,138.73656 70.648225,173.91754 88.037194,212.55124 68.947866,249.72581 Z"
       id="path5155"
       sodipodi:nodetypes="cssccccc" />
  </g>
  <g
     inkscape:groupmode="layer"
     id="layer3"
     inkscape:label="hair-b"
     style="display:inline">
    <path
       id="path1284"
       style="display:inline;fill:#42ff42;fill-opacity:1;stroke:#000000;stroke-width:14.5;stroke-dasharray:none;stroke-opacity:1"
       d="m 73.376953,139.23438 c 0,0 -72.3032776,291.85702 23.617188,293.85546 38.175429,0.79537 74.562019,0.99072 110.318359,0.98633 C 146.54863,410.37419 73.970735,343.45909 74.914062,250.30859 75.332704,208.96916 87.290126,170.69184 107.38672,139.26953 Z M 394.125,139.56641 c 19.94301,31.36841 31.92251,69.53657 32.76562,110.74218 1.87609,91.69064 -70.43065,158.9287 -131.2539,183.25 34.52813,-0.4064 68.67777,-0.91617 102.44726,-1.47851 95.78155,-1.595 36.31446,-292.47266 36.31446,-292.47266 z" />
    <ellipse
       style="display:inline;fill:#42ff42;fill-opacity:1;stroke:#000000;stroke-width:14.5;stroke-linecap:round;stroke-linejoin:miter;stroke-dasharray:none;stroke-opacity:1"
       id="path5141"
       cx="418.73215"
       cy="88.286903"
       rx="70.629524"
       ry="65.584557" />
    <ellipse
       style="display:inline;fill:#42ff42;fill-opacity:1;stroke:#000000;stroke-width:14.5;stroke-linecap:round;stroke-linejoin:miter;stroke-dasharray:none;stroke-opacity:1"
       id="ellipse5145"
       cx="95.85434"
       cy="83.241936"
       rx="70.629524"
       ry="65.584557" />
    <path
       style="display:inline;fill:#42ff42;fill-opacity:1;stroke:#000000;stroke-width:14.5;stroke-linecap:round;stroke-linejoin:miter;stroke-dasharray:none;stroke-opacity:1"
       d="m 66.425383,198.43532 92.491037,0.63062 c 8.17247,-23.66193 16.16443,-43.74292 35.49253,-68.24202 2.90025,23.0394 4.43225,46.42086 9.33467,68.95971 l 140.15488,0.54355 92.49104,0.63062 c 0,0 -21.67332,-162.146637 -185.82291,-162.279729 C 86.417044,38.544979 66.425383,198.43532 66.425383,198.43532 Z"
       id="path5139"
       sodipodi:nodetypes="cccccczc" />
  </g>
  <g
     inkscape:groupmode="layer"
     id="layer5"
     inkscape:label="eyes-a"
     style="display:inline">
    <path
       style="display:inline;fill:#ffffff;fill-opacity:1;stroke:none;stroke-width:8;stroke-linecap:round;stroke-linejoin:miter;stroke-dasharray:none;stroke-opacity:1"
       d="m 135.16304,252.87891 c -13.49666,7.9813 -17.26893,32.31999 -9.66952,46.03531 10.21425,12.76553 43.70653,9.82025 56.54566,6.096 10.3484,-7.27943 25.62956,-19.38197 21.44111,-31.32083 -7.88068,-22.46325 -47.82644,-32.92779 -68.31725,-20.81048 z"
       id="path2011"
       sodipodi:nodetypes="sccss" />
    <path
       style="display:inline;fill:#000000;fill-opacity:1;stroke:#000000;stroke-width:1;stroke-linecap:round;stroke-linejoin:miter;stroke-dasharray:none;stroke-opacity:1"
       d="m 206.31033,278.0061 c 0,0 -9.39192,-14.56932 -18.38565,-19.03119 -15.52882,-7.704 -36.87902,-11.55868 -51.9211,-2.9429 -5.32977,3.05277 -22.16819,22.25011 -9.43282,44.40022 -5.02696,-5.05078 -7.38373,-11.60794 -7.38373,-11.60794 -8.70819,1.80999 -14.58812,-1.40804 -19.759446,-5.88579 7.087656,-0.26835 14.099366,-1.11904 20.600276,-5.8858 -5.49467,-0.92239 -11.39441,-1.03464 -15.97573,-3.78372 6.68435,-1.96421 9.60832,-1.25114 15.7462,-8.68005 4.59492,-5.5614 8.73628,-12.4622 14.10318,-15.28354 16.74757,-8.80408 36.52473,-5.29663 47.98618,-1.09147 8.44515,3.09848 18.19016,12.59807 34.11108,16.47046 -5.77155,0.0773 -6.23735,1.35743 -14.05179,-2.14033 -0.35753,4.01568 1.85526,10.10081 4.36335,15.46205 z"
       id="path1841"
       sodipodi:nodetypes="csscccccsssccc" />
    <path
       style="display:inline;fill:#000000;fill-opacity:1;stroke:#000000;stroke-width:1;stroke-linecap:round;stroke-linejoin:miter;stroke-dasharray:none;stroke-opacity:1"
       d="m 138.31615,306.06125 c 14.93595,3.00498 29.37487,1.2054 43.72304,-1.47144 0,0 -15.8366,5.66917 -23.70676,5.88141 -7.57571,0.20431 -20.01628,-4.40997 -20.01628,-4.40997 z"
       id="path1843"
       sodipodi:nodetypes="ccsc" />
    <ellipse
       style="display:inline;fill:#42ff42;fill-opacity:1;stroke:#000000;stroke-width:8;stroke-linecap:round;stroke-linejoin:miter;stroke-dasharray:none;stroke-opacity:1"
       id="ellipse2009"
       cx="162.7594"
       cy="279.58945"
       rx="17.985287"
       ry="25.119946" />
    <path
       style="display:inline;fill:none;fill-opacity:0;stroke:#000000;stroke-width:8;stroke-linecap:round;stroke-linejoin:miter;stroke-dasharray:none;stroke-opacity:1"
       d="m 212.72939,233.32966 c -35.4096,-6.68229 -67.0144,-48.87603 -108.46677,0.84083"
       id="path2368"
       sodipodi:nodetypes="cc" />
    <g
       id="g4990"
       transform="translate(-3.7837243)">
      <path
         style="display:inline;fill:#ffffff;fill-opacity:1;stroke:none;stroke-width:8;stroke-linecap:round;stroke-linejoin:miter;stroke-dasharray:none;stroke-opacity:1"
         d="m 370.20341,252.87891 c 13.49666,7.9813 17.26893,32.31999 9.66952,46.03531 -10.21425,12.76553 -43.70653,9.82025 -56.54566,6.096 -10.3484,-7.27943 -25.62956,-19.38197 -21.44111,-31.32083 7.88068,-22.46325 47.82644,-32.92779 68.31725,-20.81048 z"
         id="path2286"
         sodipodi:nodetypes="sccss" />
      <path
         style="display:inline;fill:#000000;fill-opacity:1;stroke:#000000;stroke-width:1;stroke-linecap:round;stroke-linejoin:miter;stroke-dasharray:none;stroke-opacity:1"
         d="m 298.81658,278.0061 c 0,0 9.39192,-14.56932 18.38565,-19.03119 15.52882,-7.704 36.87902,-11.55868 51.9211,-2.9429 5.32977,3.05277 22.16819,22.25011 9.43282,44.40022 5.02696,-5.05078 7.38373,-11.60794 7.38373,-11.60794 8.70819,1.80999 14.58812,-1.40804 19.75945,-5.88579 -7.08766,-0.26835 -14.09937,-1.11904 -20.60028,-5.8858 5.49467,-0.92239 11.39441,-1.03464 15.97573,-3.78372 -6.68435,-1.96421 -9.60832,-1.25114 -15.7462,-8.68005 -4.59492,-5.5614 -8.73628,-12.4622 -14.10318,-15.28354 -16.74757,-8.80408 -36.52473,-5.29663 -47.98618,-1.09147 -8.44515,3.09848 -18.19016,12.59807 -34.11108,16.47046 5.77155,0.0773 6.23735,1.35743 14.05179,-2.14033 0.35753,4.01568 -1.85526,10.10081 -4.36335,15.46205 z"
         id="path1515"
         sodipodi:nodetypes="csscccccsssccc" />
      <path
         style="display:inline;fill:#000000;fill-opacity:1;stroke:#000000;stroke-width:1;stroke-linecap:round;stroke-linejoin:miter;stroke-dasharray:none;stroke-opacity:1"
         d="m 366.1032,306.3374 c -14.93595,3.00498 -29.37487,1.2054 -43.72304,-1.47144 0,0 15.8366,5.66917 23.70676,5.88141 7.57571,0.20431 20.01628,-4.40997 20.01628,-4.40997 z"
         id="path1845"
         sodipodi:nodetypes="ccsc" />
      <ellipse
         style="display:inline;fill:#42ff42;fill-opacity:1;stroke:#000000;stroke-width:8;stroke-linecap:round;stroke-linejoin:miter;stroke-dasharray:none;stroke-opacity:1"
         id="path1851"
         cx="342.61224"
         cy="279.29214"
         rx="17.985287"
         ry="25.119946" />
      <path
         style="display:inline;fill:none;fill-opacity:0;stroke:#000000;stroke-width:8;stroke-linecap:round;stroke-linejoin:miter;stroke-dasharray:none;stroke-opacity:1"
         d="m 289.2447,233.75008 c 35.4096,-6.68229 67.0144,-48.87603 108.46677,0.84083"
         id="path2366"
         sodipodi:nodetypes="cc" />
    </g>
  </g>
  <g
     inkscape:groupmode="layer"
     id="layer13"
     inkscape:label="eyes-b"
     style="display:none">
    <g
       id="g4973">
      <path
         style="fill:#ffffff;fill-opacity:1;stroke:none;stroke-width:8;stroke-linecap:round;stroke-linejoin:miter;stroke-dasharray:none;stroke-opacity:1"
         d="m 347.26181,295.55091 c -17.24598,-0.0565 -46.2668,-7.57989 -45.40469,-24.80441 0.9355,-18.69066 32.99824,-22.09054 51.7109,-21.86152 15.99234,0.19573 43.17147,3.77542 43.72304,19.75945 0.65302,18.92396 -31.09413,26.96854 -50.02925,26.90648 z"
         id="path4960"
         sodipodi:nodetypes="sssss" />
      <path
         style="fill:none;fill-opacity:1;stroke:#000000;stroke-width:8;stroke-linecap:round;stroke-linejoin:miter;stroke-dasharray:none;stroke-opacity:1"
         d="m 298.07339,272.84857 c 26.16503,-33.79343 91.00156,-33.65596 100.47891,0.42041"
         id="path4958"
         sodipodi:nodetypes="cc" />
      <ellipse
         style="fill:#42ff42;fill-opacity:1;stroke:#000000;stroke-width:8;stroke-linecap:round;stroke-linejoin:miter;stroke-dasharray:none;stroke-opacity:1"
         id="path4965"
         ry="19.969656"
         rx="20.705379"
         cy="272.63837"
         cx="350.73022" />
      <path
         style="fill:none;fill-opacity:1;stroke:#000000;stroke-width:8;stroke-linecap:round;stroke-linejoin:miter;stroke-dasharray:none;stroke-opacity:1"
         d="m 298.46657,232.1737 c 21.83296,-18.03337 83.52594,-12.64626 102.56072,-0.29728"
         id="path4967"
         sodipodi:nodetypes="cc" />
    </g>
    <g
       id="g4983"
       transform="matrix(-1,0,0,1,500.81661,1.7836648)">
      <path
         style="fill:#ffffff;fill-opacity:1;stroke:none;stroke-width:8;stroke-linecap:round;stroke-linejoin:miter;stroke-dasharray:none;stroke-opacity:1"
         d="m 347.26181,295.55091 c -17.24598,-0.0565 -46.2668,-7.57989 -45.40469,-24.80441 0.9355,-18.69066 32.99824,-22.09054 51.7109,-21.86152 15.99234,0.19573 43.17147,3.77542 43.72304,19.75945 0.65302,18.92396 -31.09413,26.96854 -50.02925,26.90648 z"
         id="path4975"
         sodipodi:nodetypes="sssss" />
      <path
         style="fill:none;fill-opacity:1;stroke:#000000;stroke-width:8;stroke-linecap:round;stroke-linejoin:miter;stroke-dasharray:none;stroke-opacity:1"
         d="m 298.07339,272.84857 c 26.16503,-33.79343 91.00156,-33.65596 100.47891,0.42041"
         id="path4977"
         sodipodi:nodetypes="cc" />
      <ellipse
         style="fill:#42ff42;fill-opacity:1;stroke:#000000;stroke-width:8;stroke-linecap:round;stroke-linejoin:miter;stroke-dasharray:none;stroke-opacity:1"
         id="ellipse4979"
         ry="19.969656"
         rx="20.705379"
         cy="272.63837"
         cx="350.73022" />
      <path
         style="fill:none;fill-opacity:1;stroke:#000000;stroke-width:8;stroke-linecap:round;stroke-linejoin:miter;stroke-dasharray:none;stroke-opacity:1"
         d="m 298.46657,232.1737 c 21.83296,-18.03337 83.52594,-12.64626 102.56072,-0.29728"
         id="path4981"
         sodipodi:nodetypes="cc" />
    </g>
  </g>
  <g
     inkscape:groupmode="layer"
     id="layer7"
     inkscape:label="mouth-a"
     style="display:none">
    <path
       style="display:inline;fill:none;fill-opacity:0;stroke:#000000;stroke-width:8;stroke-linecap:round;stroke-linejoin:miter;stroke-dasharray:none;stroke-opacity:1"
       d="m 225.93087,388.24436 c 24.80813,7.36785 37.60636,2.7258 51.72628,-0.59455"
       id="path2300"
       sodipodi:nodetypes="cc" />
    <path
       style="display:inline;fill:none;fill-opacity:0;stroke:#000000;stroke-width:8;stroke-linecap:round;stroke-linejoin:miter;stroke-dasharray:none;stroke-opacity:1"
       d="m 204.60115,357.26775 c 24.76956,12.90961 69.14008,15.57425 95.22655,-3.01502"
       id="path2298"
       sodipodi:nodetypes="cc" />
  </g>
  <g
     inkscape:groupmode="layer"
     id="layer11"
     inkscape:label="mouth-b"
     style="display:inline">
    <path
       style="display:inline;fill:#42ff42;fill-opacity:1;stroke:#000000;stroke-width:8;stroke-linecap:round;stroke-linejoin:miter;stroke-dasharray:none;stroke-opacity:1"
       d="m 206.60783,370.25908 c 0,0 16.15201,15.17955 24.67403,18.13391 8.58892,2.97756 25.50134,3.68442 36.86241,0.44592 8.73719,-2.49056 24.9713,-17.39073 24.9713,-17.39073 -4.02302,-1.22758 -82.82746,-2.74893 -86.50774,-1.1891 z"
       id="path2415"
       sodipodi:nodetypes="csscc" />
    <path
       style="display:inline;fill:#42ff42;fill-opacity:1;stroke:#000000;stroke-width:8;stroke-linecap:round;stroke-linejoin:miter;stroke-dasharray:none;stroke-opacity:1"
       d="m 288.65641,368.92133 c -23.54522,6.36849 -49.46913,7.6159 -78.18397,-0.89184 l 27.05225,-9.81015 c 4.79932,4.36527 16.22283,4.63621 21.1067,0 z"
       id="path2413"
       sodipodi:nodetypes="ccccc" />
  </g>
</svg>
