<svg xmlns="http://www.w3.org/2000/svg" version="1.1" xmlns:xlink="http://www.w3.org/1999/xlink" width="512" height="512"><svg width="512" height="512" viewBox="0 0 512 512" version="1.1" id="SvgjsSvg1034" inkscape:export-filename="logo.png" inkscape:export-xdpi="96" inkscape:export-ydpi="96" inkscape:version="1.2.2 (b0a8486541, 2022-12-01)" sodipodi:docname="logo.svg" xml:space="preserve" xmlns:inkscape="http://www.inkscape.org/namespaces/inkscape" xmlns:sodipodi="http://sodipodi.sourceforge.net/DTD/sodipodi-0.dtd" xmlns="http://www.w3.org/2000/svg" xmlns:svg="http://www.w3.org/2000/svg"><sodipodi:namedview id="SvgjsSodipodi:namedview1033" pagecolor="#ffffff" bordercolor="#000000" borderopacity="0.25" inkscape:showpageshadow="2" inkscape:pageopacity="0.0" inkscape:pagecheckerboard="0" inkscape:deskcolor="#d1d1d1" inkscape:document-units="px" showgrid="false" showguides="true" inkscape:zoom="1.0274877" inkscape:cx="178.59095" inkscape:cy="230.17307" inkscape:window-width="1920" inkscape:window-height="1020" inkscape:window-x="0" inkscape:window-y="0" inkscape:window-maximized="1" inkscape:current-layer="layer1"></sodipodi:namedview><defs id="SvgjsDefs1032"><rect x="-157.80977" y="621.7915" width="763.16962" height="525.07874" id="SvgjsRect1031"></rect><rect x="49.105995" y="50.079483" width="659.6604" height="637.93054" id="SvgjsRect1030"></rect><rect x="416.93936" y="46.988953" width="246.4545" height="36.59697" id="SvgjsRect1029"></rect><rect x="433.38986" y="43.66367" width="259.72519" height="58.556019" id="SvgjsRect1028"></rect><rect x="36.355122" y="19.185089" width="556.66565" height="73.967003" id="SvgjsRect1027"></rect></defs><g inkscape:label="Layer 1" inkscape:groupmode="layer" id="SvgjsG1026"><g id="SvgjsG1025" transform="scale(2.5599974)"><rect style="fill:#3f3f32;fill-opacity:1;stroke-width:6.35;stroke-linecap:round" id="SvgjsRect1024" width="200" height="200" x="0" y="0" ry="0"></rect><path id="SvgjsPath1023" style="fill:#ffd164;fill-opacity:1;stroke:none;stroke-width:7.99999;stroke-linecap:round;stroke-linejoin:round;stroke-dasharray:none;stroke-opacity:1" d="m 116.86573,68.084733 c 0,0 61.53216,28.060367 44.59522,74.808867 -11.49556,31.7295 -53.58959,44.53514 -103.444853,29.33103 C 34.828635,165.15326 13.362701,153.41697 0,130.62045 v 69.37975 h 106.15734 c 35.49607,-11.64674 66.1489,-39.19409 68.31676,-74.47815 3.20542,-52.171182 -57.60837,-57.437317 -57.60837,-57.437317 z"></path><path id="SvgjsPath1022" style="fill:#ffd164;fill-opacity:1;stroke:none;stroke-width:7.99999;stroke-linecap:round;stroke-linejoin:round;stroke-dasharray:none;stroke-opacity:1" d="M 137.53527,50.508028 C 89.308731,50.302294 67.799996,98.475643 67.799996,98.475643 c 0,0 40.541984,-53.201677 86.776614,-34.908464 39.83093,15.759526 50.35195,63.124781 35.88773,110.763781 -2.99645,9.86906 -7.52223,18.41005 -13.44052,25.66924 H 200.0002 V 83.707035 C 188.95281,68.670194 174.23555,57.324128 156.52171,52.95129 149.78362,51.287923 143.45783,50.533294 137.53527,50.508028 Z"></path><circle style="fill:#000000;stroke:#ffd164;stroke-width:8;stroke-linecap:round;stroke-linejoin:round;stroke-dasharray:none;stroke-opacity:1" id="SvgjsCircle1021" cx="122.16214" cy="117.39636" r="48.964874"></circle><path id="SvgjsPath1020" style="fill:#a7ff64;fill-opacity:1;stroke:none;stroke-width:7.99999;stroke-linecap:round;stroke-linejoin:round;stroke-dasharray:none;stroke-opacity:1" d="M 41.254846,0 C 13.251617,29.103216 3.9405673,79.494327 25.233085,110.35037 c 28.691893,41.57884 73.489571,20.04219 73.489571,20.04219 0,0 -58.314556,13.11743 -64.886995,-36.168337 C 29.374769,60.772628 52.97444,26.803132 84.612406,15.057996 109.41389,5.8508031 159.16619,-4.1440696 200.0002,38.832772 V 0 Z"></path><circle style="fill:#000000;stroke:#a7ff64;stroke-width:8;stroke-linecap:round;stroke-linejoin:round;stroke-dasharray:none;stroke-opacity:1" id="SvgjsCircle1019" cx="28.201262" cy="123.98386" r="32.808693" transform="rotate(-25.88417)"></circle></g></g></svg><style>@media (prefers-color-scheme: light) { :root { filter: none; } }
@media (prefers-color-scheme: dark) { :root { filter: none; } }
</style></svg>