<svg xmlns="http://www.w3.org/2000/svg" version="1.1" xmlns:xlink="http://www.w3.org/1999/xlink" width="512" height="512"><svg width="512" height="512" viewBox="0 0 512 512" version="1.1" id="SvgjsSvg1031" inkscape:export-filename="logo2.png" inkscape:export-xdpi="96" inkscape:export-ydpi="96" inkscape:version="1.2.2 (b0a8486541, 2022-12-01)" sodipodi:docname="logo2.svg" xml:space="preserve" xmlns:inkscape="http://www.inkscape.org/namespaces/inkscape" xmlns:sodipodi="http://sodipodi.sourceforge.net/DTD/sodipodi-0.dtd" xmlns="http://www.w3.org/2000/svg" xmlns:svg="http://www.w3.org/2000/svg"><sodipodi:namedview id="SvgjsSodipodi:namedview1030" pagecolor="#ffffff" bordercolor="#000000" borderopacity="0.25" inkscape:showpageshadow="2" inkscape:pageopacity="0.0" inkscape:pagecheckerboard="0" inkscape:deskcolor="#d1d1d1" inkscape:document-units="px" showgrid="false" showguides="true" inkscape:zoom="0.51374385" inkscape:cx="82.726051" inkscape:cy="261.80362" inkscape:window-width="1920" inkscape:window-height="1020" inkscape:window-x="1920" inkscape:window-y="0" inkscape:window-maximized="1" inkscape:current-layer="layer1"></sodipodi:namedview><defs id="SvgjsDefs1029"><rect x="-157.80977" y="621.7915" width="763.16962" height="525.07874" id="SvgjsRect1028"></rect><rect x="49.105995" y="50.079483" width="659.6604" height="637.93054" id="SvgjsRect1027"></rect><rect x="416.93936" y="46.988953" width="246.4545" height="36.59697" id="SvgjsRect1026"></rect><rect x="433.38986" y="43.66367" width="259.72519" height="58.556019" id="SvgjsRect1025"></rect><rect x="36.355122" y="19.185089" width="556.66565" height="73.967003" id="SvgjsRect1024"></rect></defs><g inkscape:label="Layer 1" inkscape:groupmode="layer" id="SvgjsG1023"><g id="SvgjsG1022"><rect style="fill:#1e293b;fill-opacity:1;stroke-width:16.256;stroke-linecap:round" id="SvgjsRect1021" width="511.99948" height="511.99948" x="0" y="0" ry="0"></rect><path id="SvgjsPath1020" style="fill:#06b6d4;fill-opacity:1;stroke:none;stroke-width:20.48;stroke-linecap:round;stroke-linejoin:round;stroke-dasharray:none;stroke-opacity:1" d="m 299.17596,174.29674 c 0,0 157.52217,71.83447 114.16365,191.5105 C 383.91101,447.03468 276.1504,479.81709 148.52106,440.89461 89.161215,422.79192 34.20848,392.74704 0,334.38801 V 511.99999 H 271.76251 C 362.63236,482.18437 441.10353,411.66322 446.65324,321.33612 454.85911,187.77803 299.17596,174.29674 299.17596,174.29674 Z"></path><path id="SvgjsPath1019" style="fill:#06b6d4;fill-opacity:1;stroke:none;stroke-width:20.48;stroke-linecap:round;stroke-linejoin:round;stroke-dasharray:none;stroke-opacity:1" d="m 352.08993,129.30042 c -123.45981,-0.52668 -178.52212,122.79697 -178.52212,122.79697 0,0 103.78738,-136.19615 222.14791,-89.36558 101.96708,40.34435 128.90086,161.59928 91.8725,283.55499 -7.67091,25.26477 -19.25689,47.12968 -34.4077,65.71319 h 58.81947 v -297.7102 c -28.28129,-38.49427 -65.95744,-67.54017 -111.30482,-78.73463 -17.24949,-4.25821 -33.4435,-6.19006 -48.60524,-6.25474 z"></path><circle style="fill:#030014;stroke:#06b6d4;stroke-width:20.48;stroke-linecap:round;stroke-linejoin:round;stroke-dasharray:none;stroke-opacity:1;fill-opacity:1" id="SvgjsCircle1018" cx="312.73477" cy="300.53439" r="125.34995"></circle><path id="SvgjsPath1017" style="fill:#8b5cf6;fill-opacity:1;stroke:none;stroke-width:20.48;stroke-linecap:round;stroke-linejoin:round;stroke-dasharray:none;stroke-opacity:1" d="M 105.6123,0 C 33.924105,74.504157 10.087842,203.50527 64.596632,282.49666 138.0478,388.93838 252.72974,333.80461 252.72974,333.80461 c 0,0 -149.28511,33.58059 -166.110536,-92.59084 C 75.199332,155.57777 135.61443,68.615948 216.60754,38.548431 280.09927,14.978041 407.46503,-10.608807 511.99999,99.411795 V 0 Z"></path><circle style="fill:#030014;stroke:#8b5cf6;stroke-width:20.48;stroke-linecap:round;stroke-linejoin:round;stroke-dasharray:none;stroke-opacity:1;fill-opacity:1" id="SvgjsCircle1016" cx="72.195152" cy="317.39835" r="83.990166" transform="rotate(-25.884171)"></circle></g></g></svg><style>@media (prefers-color-scheme: light) { :root { filter: none; } }
@media (prefers-color-scheme: dark) { :root { filter: none; } }
</style></svg>